Coordinates
version=1
nRows=4
nColumns=107
inDegrees=yes

Units are S.I. units (second, meters, Newtons, ...)
If the header above contains a line with 'inDegrees', this indicates whether rotational values are in degrees (yes) or radians (no).

endheader
time	sternoclavicular_r2	sternoclavicular_r3	unrotscap_r3	unrotscap_r2	acromioclavicular_r2	acromioclavicular_r3	acromioclavicular_r1	unrothum_r1	unrothum_r3	unrothum_r2	elv_angle	shoulder_elv	shoulder1_r2	shoulder_rot	elbow_flexion	pro_sup	deviation	flexion	proximal_distal_r1	proximal_distal_r3	cmc_flexion	cmc_abduction	mp_flexion	ip_flexion	mcp2_flexion	mcp2_abduction	pm2_flexion	md2_flexion	mcp3_flexion	mcp3_abduction	pm3_flexion	md3_flexion	mcp4_flexion	mcp4_abduction	pm4_flexion	md4_flexion	mcp5_flexion	mcp5_abduction	pm5_flexion	md5_flexion	bicpt_tx	bicpt_ty	bicpt_tz	bicpt2_tx	bicpt2_ty	bicpt2_tz	ptpt_tx	ptpt_ty	ptpt_tz	FCUpt_tx	FCUpt_ty	FCUpt_tz	EDCpt_tx	EDCpt_ty	EDCpt_tz	APLpt_tx	APLpt_ty	APLpt_tz	FPLpt_tx	FPLpt_ty	FPLpt_tz	FPLpt2_tx	FPLpt2_ty	FPLpt2_tz	PEC1pt2_tx	PEC1pt2_ty	PEC1pt2_tz	PEC1pt3_tx	PEC1pt3_ty	PEC1pt3_tz	PEC2pt2_tx	PEC2pt2_ty	PEC2pt2_tz	PEC2pt3_tx	PEC2pt3_ty	PEC2pt3_tz	PEC3pt2_tx	PEC3pt2_ty	PEC3pt2_tz	PEC3pt3_tx	PEC3pt3_ty	PEC3pt3_tz	DELT2pt2a_tx	DELT2pt2a_ty	DELT2pt2a_tz	DELT2pt2_tx	DELT2pt2_ty	DELT2pt2_tz	LAT1pt2_tx	LAT1pt2_ty	LAT1pt2_tz	LAT1pt3_tx	LAT1pt3_ty	LAT1pt3_tz	LAT2pt2_tx	LAT2pt2_ty	LAT2pt2_tz	LAT2pt3_tx	LAT2pt3_ty	LAT2pt3_tz	LAT3pt2_tx	LAT3pt2_ty	LAT3pt2_tz	LAT3pt3_tx	LAT3pt3_ty	LAT3pt3_tz
      0.93333333	     -0.32530880	      0.13778545	     -0.13778545	      0.32530880	     -0.06586841	      0.53232536	      0.23927659	     -0.23927659	     -0.53232536	      0.06586841	     99.00354289	     77.01975021	     -1.72793779	    -21.50745883	     28.57201313	     32.33823160	      0.10908365	     -0.11314362	      0.13830225	     -0.05657181	     30.66608003	     14.79984676	      3.96164709	      6.33783185	     -3.21223624	     12.13263088	     14.98898900	    -19.74424768	    -15.91384890	     -3.47150384	     10.78564939	     13.66671983	    -20.08982605	     -6.17384979	     -9.37513461	     21.03495591	    -28.32863608	    -13.77934968	     -7.88448940	      4.97962119	      0.00084507	     -0.03087479	     -0.00482748	      0.01649294	     -0.01796173	     -0.00824678	      0.00516057	     -0.06644505	     -0.00265502	      0.00701792	     -0.18364611	     -0.00030993	     -0.00388058	      0.00107763	      0.00018552	      0.00010504	      0.00004202	      0.00021008	      0.00013445	      0.00040336	      0.00022689	     -0.00000941	     -0.00024420	     -0.00029304	      0.00252454	      0.00885728	      0.00616159	     -0.00825824	      0.01993957	     -0.01891264	      0.00252454	      0.00885728	      0.00616159	      0.00055625	      0.01848476	     -0.00971305	      0.00398009	      0.00492542	      0.01604569	      0.00000000	      0.00793455	      0.00000000	     -0.00723130	     -0.03341804	     -0.00654326	      0.01463094	     -0.00047868	     -0.00383923	     -0.00089856	      0.01506165	     -0.00616159	      0.00248175	      0.02173670	     -0.01797129	     -0.00603322	      0.01305058	     -0.00551975	     -0.01257990	      0.02755598	     -0.03085071	     -0.02361941	      0.01459098	     -0.00740246	     -0.01566070	      0.03183486	     -0.03855270
      0.96666667	     -0.32522631	      0.13775052	     -0.13775052	      0.32522631	     -0.06585171	      0.53219038	      0.23921591	     -0.23921591	     -0.53219038	      0.06585171	     99.01985063	     77.00022048	     -1.72822242	    -21.62932303	     28.63425987	     32.71332468	      0.11543093	     -0.09827602	      0.14575001	     -0.04913801	     30.80533445	     14.65719013	      4.12001777	      5.84780759	     -3.53310340	     12.26948899	     15.51265697	    -19.76425919	    -15.59473899	     -3.30632519	     10.53487305	     13.88938185	    -19.41226728	     -6.42507212	     -9.51345368	     21.54306092	    -28.02136269	    -13.77894582	     -7.48488005	      4.96189592	      0.00084713	     -0.03088192	     -0.00482863	      0.01650006	     -0.01797864	     -0.00821067	      0.00513285	     -0.06646297	     -0.00268523	      0.00705482	     -0.18363911	     -0.00031470	     -0.00392559	      0.00109202	      0.00018434	      0.00009246	      0.00003699	      0.00018493	      0.00011835	      0.00035506	      0.00019972	     -0.00000958	     -0.00024293	     -0.00029152	      0.00252390	      0.00885503	      0.00616002	     -0.00825614	      0.01993452	     -0.01890785	      0.00252390	      0.00885503	      0.00616002	      0.00055611	      0.01848007	     -0.00971059	      0.00397936	      0.00492417	      0.01604393	      0.00000000	      0.00793050	      0.00000000	     -0.00722947	     -0.03340957	     -0.00653989	      0.01469873	     -0.00048250	     -0.00388447	     -0.00089834	      0.01505783	     -0.00616002	      0.00248112	      0.02173119	     -0.01796673	     -0.00603169	      0.01304727	     -0.00551835	     -0.01257671	      0.02754899	     -0.03084289	     -0.02361342	      0.01458728	     -0.00740058	     -0.01565672	      0.03182678	     -0.03854292
      1.00000000	     -0.32372592	      0.13711502	     -0.13711502	      0.32372592	     -0.06554791	      0.52973518	      0.23811232	     -0.23811232	     -0.52973518	      0.06554791	     99.34607167	     76.64498950	     -1.73391605	    -23.37548261	     28.65268911	     33.59227104	      0.09896483	     -0.12029947	      0.12629307	     -0.06014974	     30.97247078	     15.48254929	      1.88846073	      8.26340882	     -2.68658754	     12.22619646	     14.51022684	    -17.98108776	    -15.50849407	     -3.16112317	     11.19286839	     13.09550618	    -18.71922082	     -6.52825245	     -9.70228891	     18.70501781	    -27.81575651	    -13.74265087	     -8.77895264	      4.97870002	      0.00084774	     -0.03088404	     -0.00482897	      0.01651550	     -0.01798364	     -0.00812530	      0.00506791	     -0.06650496	     -0.00275604	      0.00714145	     -0.18362253	     -0.00032548	     -0.00403106	      0.00112592	      0.00018130	      0.00011097	      0.00004439	      0.00022193	      0.00014204	      0.00042611	      0.00023969	     -0.00000978	     -0.00024137	     -0.00028965	      0.00251225	      0.00881418	      0.00613160	     -0.00821805	      0.01984255	     -0.01882062	      0.00251225	      0.00881418	      0.00613160	      0.00055355	      0.01839481	     -0.00966579	      0.00396599	      0.00490145	      0.01601161	      0.00000000	      0.00785697	      0.00000000	     -0.00719612	     -0.03325544	     -0.00647886	      0.01564794	     -0.00053780	     -0.00455757	     -0.00089419	      0.01498837	     -0.00613160	      0.00246967	      0.02163094	     -0.01788385	     -0.00600386	      0.01298708	     -0.00549290	     -0.01251869	      0.02742190	     -0.03070060	     -0.02350448	      0.01451998	     -0.00736644	     -0.01558449	      0.03167996	     -0.03836511
      1.03333333	     -0.32365562	      0.13708525	     -0.13708525	      0.32365562	     -0.06553368	      0.52962015	      0.23806061	     -0.23806061	     -0.52962015	      0.06553368	     99.34924001	     76.62834581	     -1.73397135	    -23.37294320	     28.65096199	     33.58942611	      0.09893108	     -0.12025179	      0.12625237	     -0.06012589	     30.97346316	     15.48228029	      1.88884300	      8.26362240	     -2.68665335	     12.22650877	     14.51001316	    -17.98096152	    -15.50676277	     -3.16078861	     11.19315469	     13.09562464	    -18.71668102	     -6.52904774	     -9.70109938	     18.70515715	    -27.81434453	    -13.74270182	     -8.77833572	      4.97875306	      0.00084768	     -0.03088384	     -0.00482894	      0.01651542	     -0.01798317	     -0.00812556	      0.00506812	     -0.06650482	     -0.00275581	      0.00714117	     -0.18362258	     -0.00032544	     -0.00403072	      0.00112581	      0.00018131	      0.00011092	      0.00004437	      0.00022185	      0.00014198	      0.00042595	      0.00023960	     -0.00000978	     -0.00024136	     -0.00028963	      0.00251171	      0.00881227	      0.00613027	     -0.00821627	      0.01983824	     -0.01881653	      0.00251171	      0.00881227	      0.00613027	      0.00055343	      0.01839082	     -0.00966369	      0.00396537	      0.00490039	      0.01601008	      0.00000000	      0.00785354	      0.00000000	     -0.00719456	     -0.03324822	     -0.00647601	      0.01564654	     -0.00053772	     -0.00455661	     -0.00089400	      0.01498511	     -0.00613027	      0.00246914	      0.02162624	     -0.01787996	     -0.00600256	      0.01298426	     -0.00549170	     -0.01251597	      0.02741594	     -0.03069394	     -0.02349938	      0.01451683	     -0.00736484	     -0.01558111	      0.03167308	     -0.03835678
